#tb 0: 1/30
#media_type 0: video
#codec_id 0: rawvideo
#dimensions 0: 320x180
#sar 0: 1/1
0,          0,          0,        1,   230400, 0x07f1e56d
0,          1,          1,        1,   230400, 0x0bd1c913
0,          2,          2,        1,   230400, 0xefd02824
